<?xml version="1.0" encoding="UTF-8"?>
<svg fill="#ffc048" width="1200pt" height="1200pt" version="1.1" viewBox="0 0 1200 1200" xmlns="http://www.w3.org/2000/svg">
 <g>
  <path d="m1106.4 612c-15.602-43.199-46.801-78-88.801-97.199l-198-92.398c-18-54-55.199-99.602-103.2-128.4l72-91.199c13.199-16.801 10.801-42-6-56.398-16.801-13.199-42-10.801-56.398 6l-87.602 111.59c-13.199-2.3984-27.602-3.6016-42-3.6016-14.398 0-28.801 1.1992-42 3.6016l-87.602-110.4c-13.199-16.801-38.398-20.398-56.398-6-16.801 13.199-20.398 38.398-6 56.398l72 91.199c-49.199 30-87.602 76.801-104.4 132l-188.4 88.801c-42 19.199-73.199 54-88.801 97.199-15.602 43.199-13.199 90 6 132 13.199 28.801 33.602 52.801 60 69.602 2.3984 18 7.1992 36 15.602 52.801 28.801 62.398 91.199 99.602 156 99.602 24 0 49.199-4.8008 73.199-16.801l34.801-16.801c22.801 21.602 50.398 37.199 81.602 48l80.398 80.398 84-84c27.602-10.801 52.801-27.602 74.398-46.801l39.602 19.199c24 10.801 48 16.801 73.199 16.801 64.801 0 127.2-37.199 156-99.602 8.3984-16.801 13.199-34.801 15.602-52.801 25.199-16.801 45.602-40.801 60-69.602 15.598-43.195 16.797-89.996 1.1953-133.2zm-74.398 27.602c8.3984 22.801 7.1992 48-3.6016 70.801-10.801 22.801-28.801 39.602-52.801 48-22.801 8.3984-48 7.1992-70.801-3.6016l-73.195-34.801v-204l152.4 70.801c22.801 10.801 39.602 28.801 48 52.801zm-591.6-18h312v80.398h-312zm156-280.8c86.398 0 156 69.602 156 156v21.602h-312v-21.602c0-86.402 69.602-156 156-156zm-428.4 298.8c8.3984-22.801 25.199-42 48-52.801l144-67.199v204l-66 31.199c-22.801 10.801-48 12-70.801 3.6016-22.801-8.3984-42-25.199-52.801-48-9.5977-22.801-10.797-48.004-2.3984-70.801zm84 202.8h3.6016c25.199 0 49.199-6 73.199-16.801l37.199-18c4.8008 21.602 12 40.801 21.602 60l-18 8.3984c-43.203 21.605-93.602 6.0039-117.6-33.598zm344.4 72c-69.602 0-129.6-46.801-148.8-110.4h298.8c-20.398 64.801-80.398 110.4-150 110.4zm235.2-37.199-25.199-12c9.6016-19.199 16.801-38.398 21.602-60l44.398 20.398c22.801 10.801 48 16.801 73.199 16.801h3.6016c-25.203 39.602-75.602 55.203-117.6 34.801z"/>
  <path d="m696 440.4c0 18.559-15.043 33.602-33.602 33.602-18.555 0-33.598-15.043-33.598-33.602 0-18.555 15.043-33.598 33.598-33.598 18.559 0 33.602 15.043 33.602 33.598"/>
  <path d="m564 440.4c0 18.559-15.043 33.602-33.602 33.602-18.555 0-33.598-15.043-33.598-33.602 0-18.555 15.043-33.598 33.598-33.598 18.559 0 33.602 15.043 33.602 33.598"/>
 </g>
</svg>
