<?xml version="1.0" encoding="UTF-8"?>
<svg width="1200pt" height="1200pt" version="1.1" viewBox="0 0 1200 1200" xmlns="http://www.w3.org/2000/svg" stroke="#d2dae2" fill="#d2dae2">
 <g>
  <path stroke="#d2dae2" fill="#d2dae2" d="m578.89 203.75c-160.25 10.152-290.3 138.46-302.55 298.44-8.4727 110.32 38.797 216.24 126.43 283.34 33.793 25.871 53.184 64.754 53.184 106.73 0 29.879 24.312 54.191 54.203 54.191h179.7c29.879 0 54.203-24.312 54.203-54.191 0-41.664 19.871-80.941 54.516-107.76 80.137-62.016 126.1-155.61 126.1-256.77-0.011719-186.01-156.96-336.04-345.78-323.98zm197.64 552.28c-43.523 33.684-68.484 83.328-68.484 136.22 0 10.031-8.1719 18.191-18.203 18.191l-179.69 0.003906c-10.031 0-18.203-8.1602-18.203-18.266 0-53.207-24.527-102.5-67.285-135.24-77.93-59.676-119.96-153.88-112.43-252 10.883-142.2 126.5-256.25 268.93-265.26 6.3242-0.40625 12.602-0.60156 18.828-0.60156 159.17 0 288.66 129.49 288.66 288.65 0 89.941-40.871 173.15-112.13 228.3z"/>
  <path stroke="#d2dae2" fill="#d2dae2" d="m703 976.3h-205.99c-9.9375 0-18 8.0508-18 18s8.0625 18 18 18h205.99c9.9375 0 18-8.0508 18-18s-8.0625-18-18-18z"/>
  <path stroke="#d2dae2" fill="#d2dae2" d="m703 1035.3h-41.555c-0.097656 0-0.19141-0.023438-0.28906-0.023438s-0.19141 0.023438-0.28906 0.023438h-121.68c-0.097656 0-0.19141-0.023438-0.28906-0.023438-0.097656 0-0.19141 0.023438-0.28906 0.023438h-41.605c-9.9375 0-18 8.0508-18 18s8.0625 18 18 18h25.211c6.6406 38.977 38.945 68.676 77.754 68.676 38.879 0 71.219-29.699 77.867-68.676h25.164c9.9375 0 18-8.0508 18-18s-8.0625-18-18-18zm-103.03 68.676c-19.031 0-35.039-13.777-40.715-32.676h81.539c-5.6875 18.898-21.734 32.676-40.824 32.676z"/>
  <path stroke="#d2dae2" fill="#d2dae2" d="m605.05 526.71c0.35938 0.046875 0.73047 0.070312 1.0781 0.070312 4.5 0 8.4609-3.6133 9.0469-8.1836l2.1484-16.68c0.625-4.9336-2.8555-9.4336-7.7891-10.066-5.0391-0.67188-9.4336 2.8555-10.066 7.7891l-2.1367 16.645-0.097656 0.67188c-0.62891 4.9414 2.8984 9.1172 7.8164 9.7539z"/>
  <path stroke="#d2dae2" fill="#d2dae2" d="m519.45 649.63c-3.6133-3.3828-9.3125-3.2383-12.73 0.39453-3.3945 3.625-3.2266 9.3242 0.39453 12.73l8.4375 7.9336c1.7383 1.6328 3.9492 2.4492 6.168 2.4492 2.3867 0 4.7891-0.94922 6.5625-2.832 3.3945-3.625 3.2266-9.3125-0.39453-12.719z"/>
  <path stroke="#d2dae2" fill="#d2dae2" d="m834.62 564.42c-0.22656-5.207-3.9727-9.7305-9-11.102-17.797-4.8477-36.254-7.3086-54.828-7.3086-36.348 0-69.109 9.4219-97.355 27.996-42.301 27.805-61.812 67.223-70.801 99.707 0.37109-10.223 1.0312-20.52 2.0898-31.309 1.2344-12.637 1.7383-20.195 2.1602-26.723 0.43359-6.5273 0.81641-12.109 1.8242-20.809 20.328-13.031 87.793-62.711 91.379-150.38 3.0234-73.801-42.648-124.3-62.594-142.74-3.8281-3.5391-9.707-4.1289-14.258-1.5234-23.438 13.297-79.453 52.055-93.406 124.62-16.656 86.641 38.652 150.91 54.973 167.66-1.043 9.0586-1.4141 14.797-1.8594 21.613-0.34766 5.1484-0.74219 11.102-1.5117 19.668-9.6484-26.82-26.398-55.211-55.234-77.988-37.094-29.293-78.035-35.438-105.84-35.438-21 0-36.277 3.3359-41.531 4.4883-5.1016 1.1172-8.9023 5.5664-9.3945 10.766-2.5078 26.484-3.0234 93.758 46.367 146.44 41.773 44.543 94.117 53.902 130.66 53.902h0.011718c15.516 0 27.504-1.7031 33.672-2.8203 0.40625 5.125 0.875 10.344 1.4297 15.742 3.4336 33.672 14.027 62.34 23.375 87.648l2.5195 6.8516c1.7773 4.8594 6.3828 7.8828 11.27 7.8828 1.3672 0 2.7617-0.23828 4.1289-0.74219 6.2266-2.2812 9.4219-9.168 7.1523-15.395l-2.5547-6.9258c-8.8555-23.965-18.887-51.121-22.008-81.758-0.13281-1.2852-0.22656-2.4844-0.34766-3.7422 5.0391 1.332 24.73 6.0234 51.168 6.0234 33.395 0 81.793-7.7031 122.72-44.375 53.645-48.125 56.777-113.75 55.625-139.93zm-281.23-135.05c10.754-55.945 50.93-88.945 74.207-103.78 19.141 19.598 50.82 60.91 48.492 117.9-2.5664 62.543-42.781 102.94-66.91 121.68l2.6641-20.688c0.63672-4.9336-2.8438-9.4453-7.7773-10.066-4.8711-0.63672-9.4453 2.832-10.078 7.7773l-2.7734 21.492c-19.164-23.566-49.727-72.457-37.824-134.32zm-6.9688 282.58c-31.801 0-77.258-8.0391-113.15-46.32-38.039-40.57-41.785-91.789-40.586-119.04 6.6133-1.0938 16.152-2.2305 27.637-2.2305 24.012 0 59.281 5.2578 90.961 30.266 47.219 37.297 57.023 92.148 58.598 122.54l-23.051-21.742c-3.6367-3.3945-9.3242-3.2539-12.73 0.38281-3.4062 3.6133-3.2383 9.3125 0.37109 12.719l24.395 22.992c-3.7461 0.25-7.8867 0.42969-12.445 0.42969zm216.53-25.477c-35.281 31.609-77.508 38.242-106.71 38.242-9.0859 0-17.137-0.64844-24.012-1.4766l1.4414-1.0781c3.9844-2.9766 4.7891-8.6172 1.8125-12.602-2.9648-3.9727-8.6172-4.7891-12.602-1.8008l-2.9766 2.2305c3-28.98 15.648-82.379 66.695-115.92 24.277-15.949 52.609-24.035 84.191-24.035 13.477 0 26.855 1.4648 40.008 4.3672-0.26562 26.285-6.9023 75.367-47.844 112.07z"/>
  <path stroke="#d2dae2" fill="#d2dae2" d="m681.71 663.64-39.961 29.965c-3.9727 2.9883-4.7773 8.6172-1.8008 12.602 1.7656 2.3633 4.4766 3.6016 7.2227 3.6016 1.8711 0 3.7695-0.58984 5.3867-1.8008l39.949-29.965c3.9727-2.9883 4.7773-8.6289 1.7891-12.602-2.9727-3.9609-8.6016-4.7773-12.586-1.8008z"/>
  <path stroke="#d2dae2" fill="#d2dae2" d="m211.87 515.91h-67.777c-8.2812 0-15 6.7188-15 15s6.7188 15 15 15h67.777c8.2812 0 15-6.7188 15-15 0-8.2773-6.707-15-15-15z"/>
  <path stroke="#d2dae2" fill="#d2dae2" d="m1055.9 515.91h-67.777c-8.2812 0-15 6.7188-15 15s6.7188 15 15 15h67.777c8.2812 0 15-6.7188 15-15 0-8.2773-6.707-15-15-15z"/>
  <path stroke="#d2dae2" fill="#d2dae2" d="m314.94 794.75-47.93 47.93c-5.8555 5.8555-5.8555 15.348 0 21.215 2.9297 2.9297 6.7578 4.3906 10.609 4.3906 3.8516 0 7.6797-1.4648 10.609-4.3906l47.93-47.93c5.8555-5.8555 5.8555-15.348 0-21.215-5.8594-5.8672-15.363-5.8555-21.219 0z"/>
  <path stroke="#d2dae2" fill="#d2dae2" d="m911.77 197.93-47.93 47.93c-5.8555 5.8555-5.8555 15.348 0 21.215 2.9297 2.9297 6.7578 4.3906 10.609 4.3906s7.6797-1.4648 10.609-4.3906l47.93-47.93c5.8555-5.8555 5.8555-15.348 0-21.215-5.8594-5.8711-15.352-5.8594-21.219 0z"/>
  <path stroke="#d2dae2" fill="#d2dae2" d="m600 157.78c8.2812 0 15-6.7188 15-15v-67.777c0-8.2812-6.7188-15-15-15s-15 6.7188-15 15v67.777c0 8.2891 6.7188 15 15 15z"/>
  <path stroke="#d2dae2" fill="#d2dae2" d="m885.06 794.75c-5.8555-5.8555-15.348-5.8555-21.215 0-5.8672 5.8555-5.8555 15.348 0 21.215l47.93 47.93c2.9297 2.9297 6.7578 4.3906 10.609 4.3906 3.8516 0 7.6797-1.4648 10.609-4.3906 5.8555-5.8555 5.8555-15.348 0-21.215z"/>
  <path stroke="#d2dae2" fill="#d2dae2" d="m314.94 267.06c2.9297 2.9297 6.7578 4.3906 10.609 4.3906 3.8516 0 7.6797-1.4648 10.609-4.3906 5.8555-5.8555 5.8555-15.359 0-21.215l-47.93-47.93c-5.8555-5.8555-15.348-5.8555-21.215 0-5.8672 5.8555-5.8555 15.359 0 21.215z"/>
 </g>
</svg>
