<?xml version="1.0" standalone="no"?>
<!DOCTYPE svg PUBLIC "-//W3C//DTD SVG 20010904//EN"
 "http://www.w3.org/TR/2001/REC-SVG-20010904/DTD/svg10.dtd">
<svg version="1.0" xmlns="http://www.w3.org/2000/svg"
 width="700.000000pt" height="700.000000pt" viewBox="0 0 700.000000 700.000000"
 preserveAspectRatio="xMidYMid meet">
<metadata>
Created by potrace 1.14, written by Peter Selinger 2001-2017
</metadata>
<g transform="translate(0.000000,700.000000) scale(0.100000,-0.100000)"
fill="#000000" stroke="none">
<path d="M4341 6180 c-29 -9 -63 -28 -77 -41 -15 -13 -100 -118 -191 -234 -90
-115 -173 -221 -184 -235 -11 -14 -52 -66 -92 -117 l-72 -92 -55 7 c-69 9
-318 9 -387 0 l-51 -6 -104 131 c-56 73 -110 141 -120 152 -9 11 -81 101 -159
200 -79 99 -150 186 -158 193 -40 32 -92 49 -148 50 -171 1 -283 -168 -214
-323 11 -24 57 -91 103 -148 45 -57 95 -119 109 -138 15 -19 72 -91 128 -161
55 -70 101 -131 101 -136 0 -5 -31 -30 -69 -55 -144 -99 -311 -278 -405 -435
-41 -68 -116 -234 -116 -257 0 -19 -39 -44 -145 -92 -49 -23 -144 -67 -209
-98 -65 -31 -137 -64 -160 -75 -23 -10 -112 -52 -200 -94 -87 -42 -159 -76
-161 -76 -18 0 -338 -164 -391 -201 -247 -171 -408 -475 -418 -785 -10 -322
141 -648 383 -824 52 -38 61 -49 66 -84 30 -195 149 -424 293 -563 144 -139
359 -247 537 -269 28 -4 53 -8 56 -10 9 -5 189 -6 214 -1 11 3 42 8 69 12 83
12 175 44 315 111 73 35 135 64 137 64 3 0 30 -21 62 -47 100 -81 277 -182
375 -213 28 -9 93 -68 271 -246 129 -129 237 -234 240 -234 3 0 115 110 250
245 134 135 247 245 249 245 3 0 39 16 79 35 83 38 244 143 303 196 21 19 43
33 49 31 6 -2 45 -19 86 -39 220 -104 282 -127 401 -148 430 -77 868 148 1065
545 42 86 81 202 92 271 7 46 12 54 82 112 91 77 185 187 239 281 39 69 84
203 96 288 11 75 13 260 3 333 -30 227 -138 446 -296 602 -107 104 -189 152
-522 306 -126 58 -515 239 -582 271 -116 54 -260 122 -295 137 -26 11 -36 25
-53 72 -58 158 -172 334 -305 471 -67 69 -193 172 -259 211 -15 9 -5 25 74
125 50 63 96 122 103 130 75 91 241 310 254 334 23 43 23 150 -1 198 -53 110
-169 158 -285 118z m-674 -1190 c237 -50 434 -184 570 -388 102 -153 145 -298
147 -497 l1 -129 -895 -1 c-492 0 -901 1 -908 3 -20 7 -14 214 9 319 106 486
588 796 1076 693z m1373 -1088 c58 -27 155 -72 215 -100 61 -27 151 -69 200
-92 50 -23 124 -58 165 -77 163 -75 240 -122 287 -177 122 -140 168 -318 128
-492 -17 -77 -77 -191 -127 -244 -131 -138 -328 -202 -503 -163 -77 17 -89 22
-275 111 -85 41 -183 87 -217 103 l-63 28 0 595 0 595 43 -18 c23 -10 89 -41
147 -69z m-2940 -527 l0 -596 -117 -56 c-65 -30 -154 -72 -198 -93 -135 -64
-200 -83 -295 -83 -149 0 -279 53 -385 158 -72 71 -109 134 -136 230 -53 192
4 403 145 539 36 34 137 106 150 106 2 0 87 39 188 86 100 47 210 99 243 114
99 45 255 119 330 155 39 19 71 34 73 34 1 1 2 -267 2 -594z m2288 -233 c1
-128 -1 -233 -5 -233 -5 -1 -414 -2 -910 -3 l-903 -1 0 235 0 235 907 0 908
-1 3 -232z m-38 -838 c0 -24 -62 -153 -105 -219 -174 -265 -453 -417 -765
-416 -103 1 -121 2 -207 22 -286 63 -549 298 -647 577 l-15 42 869 0 c479 0
870 -3 870 -6z m638 -74 c223 -103 340 -137 481 -141 34 -1 61 -4 61 -7 0 -14
-69 -92 -114 -128 -96 -78 -195 -115 -315 -119 -107 -3 -176 13 -299 72 l-99
47 32 70 c32 69 73 183 81 219 5 26 15 57 18 57 2 0 71 -31 154 -70z m-2823
-50 c13 -41 39 -112 59 -158 l35 -83 -85 -40 c-185 -86 -356 -85 -514 4 -57
32 -180 148 -180 171 0 9 19 13 60 15 33 1 70 4 82 7 13 2 39 7 58 10 67 11
207 63 331 123 105 51 125 58 127 43 2 -9 14 -51 27 -92z"/>
<path d="M3035 4618 c-154 -53 -182 -258 -48 -347 26 -17 55 -32 65 -32 10 -1
28 -2 41 -3 29 -3 97 21 122 42 72 61 94 162 52 242 -42 80 -150 125 -232 98z"/>
<path d="M3784 4608 c-52 -25 -74 -47 -95 -93 -41 -89 -12 -191 68 -244 46
-31 66 -36 132 -32 87 5 168 93 170 186 2 75 -53 161 -118 187 -45 17 -117 16
-157 -4z"/>
</g>
</svg>
