<?xml version="1.0" standalone="no"?>
<!DOCTYPE svg PUBLIC "-//W3C//DTD SVG 20010904//EN"
 "http://www.w3.org/TR/2001/REC-SVG-20010904/DTD/svg10.dtd">
<svg version="1.0" xmlns="http://www.w3.org/2000/svg"
 width="512.000000pt" height="512.000000pt" viewBox="0 0 512.000000 512.000000"
 preserveAspectRatio="xMidYMid meet">
<metadata>
Created by potrace 1.14, written by Peter Selinger 2001-2017
</metadata>
<g transform="translate(0.000000,512.000000) scale(0.100000,-0.100000)"
fill="#000000" stroke="none">
<path d="M0 2560 l0 -2560 2560 0 2560 0 0 2560 0 2560 -2560 0 -2560 0 0
-2560z m2605 2285 c25 -24 25 -27 25 -188 0 -145 -2 -167 -18 -188 -13 -15
-30 -22 -52 -22 -22 0 -39 7 -52 22 -16 21 -18 43 -18 188 0 161 0 164 25 188
31 32 59 32 90 0z m-1387 -559 c37 -19 228 -217 237 -245 10 -34 -23 -75 -64
-79 -30 -3 -43 7 -152 116 -98 98 -119 124 -119 148 0 34 7 46 35 62 26 15 31
15 63 -2z m2747 2 c28 -13 40 -45 31 -81 -3 -13 -57 -74 -121 -136 -103 -101
-118 -112 -146 -109 -41 4 -74 45 -64 79 9 27 187 214 230 240 35 22 37 22 70
7z m-1159 -53 c109 -19 268 -72 366 -121 397 -199 669 -559 755 -999 24 -123
23 -376 -1 -499 -68 -347 -217 -588 -540 -871 -132 -115 -189 -229 -206 -405
-13 -139 -53 -203 -153 -245 -54 -23 -880 -23 -934 0 -101 42 -140 105 -153
249 -17 174 -69 278 -200 395 -286 257 -413 434 -500 701 -50 153 -64 247 -64
430 1 241 34 389 139 605 269 558 876 867 1491 760z m-1856 -1335 c11 -11 20
-31 20 -45 0 -14 -9 -34 -20 -45 -18 -18 -33 -20 -192 -20 -192 0 -208 5 -208
66 0 58 21 64 212 64 155 0 170 -2 188 -20z m3598 4 c27 -18 30 -69 5 -96 -14
-16 -34 -18 -190 -18 -160 0 -175 2 -193 20 -11 11 -20 31 -20 45 0 14 9 34
20 45 18 18 33 20 188 20 135 0 172 -3 190 -16z m-3105 -1185 c13 -19 17 -34
12 -50 -9 -29 -199 -225 -237 -245 -15 -8 -33 -14 -41 -14 -25 0 -57 40 -57
72 0 27 18 49 119 150 109 109 122 119 152 116 21 -2 39 -12 52 -29z m2439
-87 c100 -101 118 -123 118 -150 0 -32 -32 -72 -57 -72 -30 0 -72 33 -164 127
-90 91 -119 128 -119 151 0 25 43 62 72 62 26 0 50 -18 150 -118z m-849 -683
c49 -22 61 -86 22 -124 l-24 -25 -471 0 -471 0 -24 25 c-37 37 -28 101 19 123
30 15 917 16 949 1z m23 -272 c29 -34 31 -66 4 -100 -18 -23 -29 -26 -91 -29
l-71 -3 -18 -52 c-52 -149 -171 -237 -320 -237 -149 0 -269 89 -319 237 l-18
52 -71 3 c-63 3 -74 6 -92 29 -11 14 -20 35 -20 47 0 28 26 65 54 76 11 5 227
8 479 7 l459 -2 24 -28z"/>
<path d="M2470 4093 c-306 -29 -566 -149 -775 -358 -414 -414 -480 -1056 -159
-1542 55 -83 109 -141 340 -363 139 -133 206 -272 223 -464 13 -136 -25 -126
461 -126 487 0 447 -11 462 130 11 114 45 221 99 313 42 70 106 139 270 289
53 47 114 111 137 141 379 491 338 1179 -98 1618 -134 135 -282 230 -458 293
-159 57 -353 84 -502 69z m293 -301 c103 -109 174 -236 208 -377 44 -182 11
-379 -92 -552 -41 -67 -162 -199 -229 -248 -44 -32 -48 -39 -53 -88 -10 -90
-17 -233 -11 -217 96 230 242 372 459 446 66 22 103 28 210 31 139 5 265 -13
294 -41 17 -18 17 -137 0 -231 -35 -196 -162 -380 -333 -484 -138 -83 -342
-123 -519 -103 -55 7 -102 10 -105 7 -10 -10 20 -142 59 -259 46 -139 48 -160
14 -182 -23 -15 -27 -15 -49 -1 -36 24 -114 253 -131 383 -3 27 -8 63 -10 79
l-5 30 -117 -3 c-131 -4 -223 11 -323 51 -223 91 -382 280 -441 527 -7 30 -13
108 -14 174 0 117 0 119 27 139 39 29 243 37 354 12 213 -46 392 -185 488
-378 l34 -68 7 76 c7 74 6 76 -24 110 -41 48 -103 140 -134 202 -80 157 -103
367 -58 527 34 123 93 226 184 322 83 88 197 173 233 174 13 0 43 -23 77 -58z"/>
<path d="M2610 3677 c-184 -145 -281 -371 -250 -586 14 -102 49 -197 106 -288
39 -63 49 -73 55 -57 4 10 8 31 8 45 1 33 22 52 53 47 21 -3 23 -8 23 -60 0
-69 7 -67 91 26 230 251 245 581 40 854 -26 34 -53 62 -59 62 -7 0 -37 -19
-67 -43z m22 -723 c-4 -62 -17 -84 -47 -84 -33 0 -44 26 -35 84 9 60 33 83 64
62 17 -12 20 -23 18 -62z"/>
<path d="M1680 2731 c0 -34 7 -97 16 -139 59 -294 311 -503 604 -501 l75 0
-53 48 c-45 40 -53 52 -50 77 5 48 40 44 98 -10 27 -25 51 -46 54 -46 8 0 -5
84 -25 159 -56 210 -198 370 -390 438 -61 22 -97 27 -201 31 l-128 4 0 -61z
m560 -401 c35 -33 36 -55 3 -77 -19 -13 -24 -11 -57 17 -37 33 -45 57 -24 78
19 19 44 14 78 -18z"/>
<path d="M3120 2664 c-219 -57 -393 -235 -450 -460 -25 -98 -25 -102 3 -97 28
6 51 -19 44 -47 -7 -28 25 -34 130 -26 109 8 161 21 251 62 132 60 229 153
288 279 39 82 61 163 65 236 3 49 1 54 -21 60 -46 13 -253 8 -310 -7z m-162
-376 c29 -29 13 -53 -80 -122 -100 -75 -121 -85 -143 -66 -31 26 -16 49 83
124 99 76 119 85 140 64z"/>
<path d="M2390 542 c0 -20 62 -93 92 -108 18 -10 53 -18 78 -18 25 0 60 8 78
18 30 15 92 88 92 108 0 4 -76 8 -170 8 -93 0 -170 -4 -170 -8z"/>
</g>
</svg>
